<svg width="75" height="89" viewBox="0 0 75 89" fill="none" xmlns="http://www.w3.org/2000/svg">
<path d="M72.3334 36.5273C72.3334 63.3819 37.1667 86.4001 37.1667 86.4001C37.1667 86.4001 2 63.3819 2 36.5273C2 27.3701 5.70505 18.5879 12.3001 12.1128C18.8951 5.63769 27.8399 2 37.1667 2C46.4935 2 55.4383 5.63769 62.0333 12.1128C68.6283 18.5879 72.3334 27.3701 72.3334 36.5273Z" fill="#44AC34" stroke="#44AC34" stroke-width="4" stroke-linecap="round" stroke-linejoin="round"/>
<path fill-rule="evenodd" clip-rule="evenodd" d="M38.0062 32.4139C37.1879 37.3919 39.0574 46.8894 44.4734 46.7019C44.7064 45.7357 44.8287 44.7205 44.8287 43.6793C44.8287 38.7302 42.0449 34.453 38.0062 32.4139ZM38.574 32.1745C45.0179 31.84 50.466 27.6205 52.7519 21.7455C47.394 16.7357 39.334 26.9514 38.079 32.1918C38.242 32.1832 38.408 32.1774 38.574 32.1745Z" fill="white"/>
<path fill-rule="evenodd" clip-rule="evenodd" d="M44.838 43.6914C44.838 44.7294 44.7165 45.7386 44.4849 46.7047C44.5226 46.7047 44.5573 46.7018 44.5949 46.6989H44.6557C49.0746 46.4603 51.1987 42.0611 49.3524 38.2974C47.2891 34.0995 42.3174 32.5094 38.0634 32.4347C38.0634 32.4404 38.0605 32.449 38.0605 32.4605C42.0744 34.4934 44.8409 38.7603 44.8409 43.6914M52.7122 21.8249C52.8338 21.937 52.9524 22.0578 53.0711 22.1872C55.7132 25.0797 54.0174 30.468 51.7138 33.4266C50.9701 34.272 50.3074 34.7435 49.0312 34.9132C47.9055 35.0627 47.0084 34.7579 46.2126 34.3439C43.7499 33.0586 41.5245 32.2708 38.622 32.2219C45.0261 31.8855 50.4405 27.679 52.7122 21.822" fill="white"/>
<path fill-rule="evenodd" clip-rule="evenodd" d="M37.4069 32.4139C33.4286 34.453 30.6886 38.7331 30.6886 43.6793C30.6886 44.7205 30.8118 45.7357 31.0411 46.7019C36.3722 46.8894 38.2094 37.3919 37.404 32.4139M37.3352 32.1918C36.0999 26.9514 28.1663 16.7357 22.8926 21.7455C25.1425 27.6176 30.5051 31.84 36.8451 32.1745C37.0085 32.1745 37.169 32.1832 37.3323 32.1918" fill="white"/>
<path fill-rule="evenodd" clip-rule="evenodd" d="M30.7062 43.691C30.7062 38.7594 33.5127 34.4948 37.5845 32.4589C37.5845 32.4503 37.5845 32.4416 37.5816 32.433C33.2632 32.5078 28.2197 34.098 26.1295 38.2964C24.2536 42.0606 26.4084 46.4602 30.8912 46.696H30.9528C30.991 46.6989 31.0291 46.7018 31.0673 46.7047C30.8325 45.7385 30.7062 44.7291 30.7062 43.691ZM37.0121 32.2202C34.0705 32.2691 31.81 33.057 29.3118 34.3424C28.5074 34.7594 27.5944 35.0613 26.4553 34.9118C25.1607 34.7421 24.4884 34.2705 23.734 33.4251C21.3942 30.4661 19.6769 25.0772 22.3571 22.1843C22.4746 22.0549 22.5979 21.9342 22.7182 21.822C25.0227 27.6768 30.5154 31.8867 37.0091 32.2231" fill="white"/>
</svg>
